<?xml version="1.0" encoding="UTF-8" standalone="no"?>
<!-- Created with Inkscape (http://www.inkscape.org/) -->

<svg
   width="49.553101mm"
   height="55.233017mm"
   viewBox="0 0 49.553101 55.233017"
   version="1.1"
   id="svg5"
   xml:space="preserve"
   inkscape:version="1.2.2 (b0a8486541, 2022-12-01)"
   sodipodi:docname="drawing.svg"
   xmlns:inkscape="http://www.inkscape.org/namespaces/inkscape"
   xmlns:sodipodi="http://sodipodi.sourceforge.net/DTD/sodipodi-0.dtd"
   xmlns="http://www.w3.org/2000/svg"
   xmlns:svg="http://www.w3.org/2000/svg"><sodipodi:namedview
     id="namedview7"
     pagecolor="#ffffff"
     bordercolor="#000000"
     borderopacity="0.25"
     inkscape:showpageshadow="2"
     inkscape:pageopacity="0.0"
     inkscape:pagecheckerboard="0"
     inkscape:deskcolor="#d1d1d1"
     inkscape:document-units="mm"
     showgrid="false"
     inkscape:zoom="1.9704153"
     inkscape:cx="503.95466"
     inkscape:cy="599.87353"
     inkscape:window-width="1920"
     inkscape:window-height="1011"
     inkscape:window-x="0"
     inkscape:window-y="0"
     inkscape:window-maximized="1"
     inkscape:current-layer="layer3" /><defs
     id="defs2" /><g
     inkscape:groupmode="layer"
     id="layer3"
     inkscape:label="Layer 3"
     transform="translate(-129.09388,-221.07316)"><path
       style="fill:#888888;fill-opacity:1;fill-rule:nonzero;stroke:none;stroke-width:0.134489;stroke-dasharray:none;stroke-opacity:1"
       d="m 172.89132,247.14872 c -0.79533,-2.79194 -0.44857,-6.30796 0.88271,-8.95024 0.39447,-0.78296 1.30482,-2.2284 1.40344,-2.2284 0.028,0 0.34509,0.45075 0.70473,1.00166 0.71632,1.09729 1.3859,2.59732 1.78228,3.99276 l 0.25534,0.89895 -0.39403,0.77953 c -0.78228,1.5476 -2.07895,3.06232 -3.55974,4.15833 -0.8794,0.65088 -0.9791,0.68311 -1.07473,0.34741 z"
       id="path4351-9" /><path
       style="fill:#888888;fill-opacity:1;fill-rule:nonzero;stroke:none;stroke-width:0.134489;stroke-dasharray:none;stroke-opacity:1"
       d="m 177.85124,240.16627 c -0.35247,-1.13142 -1.0356,-2.56041 -1.75749,-3.67634 l -0.63484,-0.98135 0.88246,-0.83604 c 1.17581,-1.11397 1.5528,-1.35984 1.7057,-1.11243 0.35571,0.57554 0.59991,2.15781 0.59991,3.88703 0,1.68497 -0.23996,3.49123 -0.4638,3.49123 -0.0503,0 -0.19965,-0.34745 -0.33194,-0.7721 z"
       id="path4353-3" /><path
       style="fill:#888888;fill-opacity:1;fill-rule:nonzero;stroke:none;stroke-width:0.134489;stroke-dasharray:none;stroke-opacity:1"
       d="m 171.43569,245.18391 c -0.42127,-0.59951 -1.07324,-1.43472 -1.44881,-1.85603 l -0.68286,-0.76602 0.62792,-1.08069 c 0.41439,-0.7132 0.78968,-1.18066 1.10359,-1.37467 0.26162,-0.16169 0.8274,-0.58669 1.25729,-0.94445 0.42989,-0.35776 0.78162,-0.62752 0.78162,-0.59946 0,0.0281 -0.12386,0.40791 -0.27524,0.84413 -0.62366,1.79705 -0.88618,4.02156 -0.67991,5.76128 0.07,0.59075 0.11723,1.08126 0.10485,1.09001 -0.0124,0.009 -0.36718,-0.47459 -0.78845,-1.0741 z"
       id="path4355-3" /><path
       style="fill:#888888;fill-opacity:1;fill-rule:nonzero;stroke:none;stroke-width:0.134489;stroke-dasharray:none;stroke-opacity:1"
       d="m 173.42838,248.68843 c -0.12081,-0.31634 -0.21966,-0.63851 -0.21966,-0.71591 0,-0.0774 0.30619,-0.33915 0.68043,-0.58165 1.41402,-0.91625 2.92196,-2.54228 3.73294,-4.02529 0.34701,-0.63455 0.392,-0.67205 0.4676,-0.38973 0.046,0.17181 0.0841,0.76557 0.0847,1.31947 l 0.001,1.00708 -1.05361,0.77671 c -0.57948,0.42719 -1.58374,1.31846 -2.23168,1.9806 -0.64794,0.66214 -1.19246,1.20389 -1.21005,1.20389 -0.0176,0 -0.13082,-0.25883 -0.25163,-0.57517 z"
       id="path4357-8" /><path
       style="fill:#888888;fill-opacity:1;fill-rule:nonzero;stroke:none;stroke-width:0.134489;stroke-dasharray:none;stroke-opacity:1"
       d="m 174.16426,250.1652 -0.26265,-0.41484 0.72236,-0.82278 c 0.871,-0.99208 3.20255,-3.02093 3.47165,-3.02093 0.23837,0 -0.25987,3.03111 -0.65284,3.97162 -0.19935,0.47712 -0.30147,0.50717 -2.18147,0.64194 -0.81278,0.0583 -0.8412,0.0491 -1.09705,-0.35501 z"
       id="path4359-05" /><path
       style="fill:#888888;fill-opacity:1;fill-rule:nonzero;stroke:none;stroke-width:0.134489;stroke-dasharray:none;stroke-opacity:1"
       d="m 175.24609,251.74683 c -0.38951,-0.49873 -0.52007,-0.75749 -0.40106,-0.79489 0.31562,-0.0992 2.25775,-0.22469 2.25775,-0.14591 0,0.0421 -0.18214,0.43739 -0.40476,0.8784 -0.26231,0.51962 -0.48742,0.80184 -0.63959,0.80184 -0.12916,0 -0.49471,-0.33275 -0.81234,-0.73944 z"
       id="path4361-66" /><path
       style="fill:#888888;fill-opacity:1;fill-rule:nonzero;stroke:none;stroke-width:0.134489;stroke-dasharray:none;stroke-opacity:1"
       d="m 173.27586,252.15219 c -0.58929,-0.10675 -0.79426,-0.1987 -0.76319,-0.34234 0.076,-0.35154 0.36151,-0.53299 0.89116,-0.56642 0.48588,-0.0307 0.52744,-0.004 0.63931,0.41601 0.0658,0.24685 0.10136,0.49154 0.079,0.54376 -0.0223,0.0522 -0.40317,0.0293 -0.84629,-0.051 z"
       id="path4365-4" /><path
       style="fill:#888888;fill-opacity:1;fill-rule:nonzero;stroke:none;stroke-width:0.0950984;stroke-dasharray:none;stroke-opacity:1"
       d="m 165.85678,248.18335 c -0.47988,-0.47987 -0.8725,-0.90008 -0.8725,-0.9338 0,-0.0337 0.34801,-0.35677 0.77336,-0.71789 0.84152,-0.71445 2.11095,-2.0894 2.81635,-3.05046 l 0.44561,-0.60711 0.51653,0.551 c 0.96334,1.02764 2.94911,3.90882 2.94911,4.27891 0,0.1353 -1.31744,0.66347 -2.31126,0.9266 -0.88314,0.23382 -2.22581,0.42306 -3.01166,0.42448 -0.41971,7.9e-4 -0.45989,-0.0261 -1.30554,-0.87173 z"
       id="path4383-00" /><path
       style="fill:#888888;fill-opacity:1;fill-rule:nonzero;stroke:none;stroke-width:0.0950984;stroke-dasharray:none;stroke-opacity:1"
       d="m 164.06376,245.99376 c -0.61361,-0.93338 -0.9067,-1.4787 -1.28851,-2.39746 -0.44063,-1.06029 -0.51569,-0.95912 0.76252,-1.02785 1.25534,-0.0675 2.29975,-0.24463 3.50958,-0.59523 l 0.81715,-0.2368 0.41139,0.40376 c 0.22627,0.22206 0.41139,0.4401 0.41139,0.48453 0,0.13404 -1.07069,1.49449 -1.76589,2.2438 -0.68956,0.74323 -2.07611,2.00352 -2.20423,2.00352 -0.0418,0 -0.33583,-0.39522 -0.6534,-0.87827 z"
       id="path4385-46" /><path
       style="fill:#888888;fill-opacity:1;fill-rule:nonzero;stroke:none;stroke-width:0.0950984;stroke-dasharray:none;stroke-opacity:1"
       d="m 168.60002,241.89515 -0.31442,-0.32439 0.73811,-0.34103 c 0.40596,-0.18756 0.74721,-0.32999 0.75834,-0.31651 0.0346,0.042 -0.74964,1.30632 -0.81028,1.30632 -0.0315,0 -0.19883,-0.14598 -0.37175,-0.32439 z"
       id="path4387-26" /><path
       style="fill:#888888;fill-opacity:1;fill-rule:nonzero;stroke:none;stroke-width:0.0950984;stroke-dasharray:none;stroke-opacity:1"
       d="m 165.06467,248.8097 c -0.34744,-0.0746 -0.8675,-0.21003 -1.15567,-0.30085 l -0.52396,-0.16511 0.63346,-0.43363 0.63345,-0.43363 0.70105,0.74221 c 0.76699,0.81204 0.76447,0.81721 -0.28833,0.59101 z"
       id="path4393-7" /><path
       style="fill:#888888;fill-opacity:1;fill-rule:nonzero;stroke:none;stroke-width:0.0950984;stroke-dasharray:none;stroke-opacity:1"
       d="m 162.65803,256.39895 c -0.90131,-0.32623 -2.45329,-0.66986 -3.39738,-0.75221 -0.77594,-0.0677 -0.779,-0.069 -1.44362,-0.62886 -1.48761,-1.25307 -3.33655,-2.34868 -5.09081,-3.0166 l -0.98731,-0.37591 0.90201,-0.004 c 2.68905,-0.0111 5.76258,-0.72867 8.31229,-1.94064 0.6171,-0.29332 1.14654,-0.50057 1.17655,-0.46054 0.41745,0.55682 1.22588,1.88817 1.6009,2.63639 0.45333,0.90447 1.15867,2.82047 1.15867,3.14743 0,0.16008 -1.29451,1.58677 -1.46775,1.61763 -0.0544,0.01 -0.398,-0.0906 -0.76355,-0.22296 z"
       id="path4395-5" /><path
       style="fill:#888888;fill-opacity:1;fill-rule:nonzero;stroke:none;stroke-width:0.0950984;stroke-dasharray:none;stroke-opacity:1"
       d="m 165.22476,254.73059 c -0.0218,-0.0661 -0.18875,-0.57457 -0.37107,-1.12989 -0.39462,-1.20191 -1.16761,-2.77083 -1.90591,-3.86838 -0.29422,-0.43738 -0.5225,-0.80281 -0.50729,-0.81206 0.0152,-0.009 0.14159,-0.088 0.28087,-0.17501 0.24031,-0.15012 0.28705,-0.14668 0.91634,0.0674 0.64263,0.21857 2.19417,0.5281 2.64715,0.5281 0.12248,0 0.48881,0.20828 0.81407,0.46285 0.7439,0.58221 1.73027,1.18819 2.5722,1.58023 l 0.65152,0.30338 -1.07879,0.53085 c -1.16987,0.57568 -2.44222,1.38363 -3.38369,2.14865 -0.37932,0.30823 -0.6102,0.44047 -0.6354,0.36393 z"
       id="path4397-6" /><path
       style="fill:#888888;fill-opacity:1;fill-rule:nonzero;stroke:none;stroke-width:0.0950984;stroke-dasharray:none;stroke-opacity:1"
       d="m 151.02679,251.22893 c -1.75173,-0.0934 -1.97809,-0.14735 -2.12848,-0.5073 -0.29281,-0.70079 -0.30585,-0.67229 0.36397,-0.79571 2.77785,-0.51184 5.88457,-2.07874 7.99434,-4.03202 l 0.5794,-0.53642 0.70192,0.48246 c 0.38606,0.26535 0.93682,0.6809 1.22391,0.92343 0.60927,0.51474 1.99416,1.92326 1.99416,2.0282 0,0.0396 -0.29723,0.22169 -0.66052,0.40464 -3.00756,1.51458 -6.51316,2.22231 -10.0687,2.03272 z"
       id="path4399-9" /><path
       style="fill:#888888;fill-opacity:1;fill-rule:nonzero;stroke:none;stroke-width:0.0950984;stroke-dasharray:none;stroke-opacity:1"
       d="m 148.4595,249.47346 c -0.49568,-1.30374 -0.80847,-4.34722 -0.60177,-5.85527 l 0.0592,-0.43189 1.05645,-0.0639 c 1.77372,-0.10727 4.00458,0.20689 5.7885,0.81515 0.79117,0.26976 2.47828,1.04057 2.64892,1.21024 0.0873,0.0868 -1.12558,1.12978 -2.09512,1.80172 -1.78125,1.23452 -4.28983,2.29653 -6.2783,2.65795 -0.46865,0.0852 -0.49705,0.0786 -0.57788,-0.13401 z"
       id="path4401-8" /><path
       style="fill:#888888;fill-opacity:1;fill-rule:nonzero;stroke:none;stroke-width:0.0950984;stroke-dasharray:none;stroke-opacity:1"
       d="m 144.57027,249.79218 c -1.5607,-0.69277 -3.12709,-1.58276 -4.25919,-2.41999 l -0.70351,-0.52027 0.27379,-0.22616 c 0.69327,-0.57264 1.99992,-1.40554 2.94283,-1.87582 1.51142,-0.75385 1.38613,-0.7541 1.87344,0.004 0.87998,1.36836 1.78537,3.29891 2.18466,4.6583 l 0.14642,0.49848 -1.11053,-0.006 c -0.6108,-0.004 -1.21735,-0.0538 -1.34791,-0.11179 z"
       id="path4403-7" /><path
       style="fill:#888888;fill-opacity:1;fill-rule:nonzero;stroke:none;stroke-width:0.0950984;stroke-dasharray:none;stroke-opacity:1"
       d="m 142.24403,249.53068 c -1.44011,-0.32953 -3.84658,-1.21439 -3.84496,-1.41379 5.3e-4,-0.0787 0.36958,-0.49019 0.68341,-0.76222 l 0.25661,-0.22244 0.6454,0.47217 c 1.08782,0.79581 1.55194,1.08997 2.54169,1.61088 1.03889,0.54678 0.98624,0.60564 -0.28215,0.3154 z"
       id="path4405-28" /><path
       style="fill:#888888;fill-opacity:1;fill-rule:nonzero;stroke:none;stroke-width:0.0950984;stroke-dasharray:none;stroke-opacity:1"
       d="m 137.14514,247.47285 -0.72844,-0.44361 0.15085,-0.29171 c 0.22457,-0.43427 0.80501,-1.29041 0.87127,-1.2851 0.0318,0.003 0.39846,0.32265 0.81486,0.71135 l 0.7571,0.70673 -0.51648,0.52298 c -0.28407,0.28764 -0.53994,0.52298 -0.56861,0.52298 -0.0287,0 -0.37992,-0.19963 -0.78055,-0.44362 z"
       id="path4407-29" /><path
       style="fill:#888888;fill-opacity:1;fill-rule:nonzero;stroke:none;stroke-width:0.0950984;stroke-dasharray:none;stroke-opacity:1"
       d="m 135.30377,246.17742 c -2.0019,-1.62199 -3.80622,-3.9662 -4.77894,-6.20891 -0.65104,-1.50106 -1.39678,-4.17663 -1.21483,-4.35858 0.0685,-0.0685 1.35755,0.0679 2.39915,0.25394 l 0.57414,0.10254 0.17243,0.68163 c 0.66651,2.63474 2.39047,5.8369 4.29283,7.97368 l 0.40573,0.45572 -0.48615,0.77861 c -0.26739,0.42824 -0.51487,0.81257 -0.54996,0.85407 -0.0351,0.0415 -0.40157,-0.19822 -0.8144,-0.5327 z"
       id="path4409-96" /><path
       style="fill:#888888;fill-opacity:1;fill-rule:nonzero;stroke:none;stroke-width:0.0950984;stroke-dasharray:none;stroke-opacity:1"
       d="m 131.56228,235.47474 c -0.18277,-0.0434 -0.78686,-0.1295 -1.3424,-0.19131 l -1.01008,-0.11236 -0.0571,-0.34493 c -0.10975,-0.66357 -0.0579,-2.98792 0.089,-3.98828 0.49935,-3.40053 1.95634,-6.47525 4.26233,-8.99487 0.40617,-0.44381 0.75558,-0.78983 0.77647,-0.76894 0.0209,0.0209 -0.0673,0.2263 -0.19594,0.45648 -0.80808,1.44581 -1.67445,3.97234 -2.05923,6.0052 -0.31433,1.66063 -0.35844,4.71232 -0.0944,6.53328 0.11055,0.76249 0.201,1.41285 0.201,1.44524 0,0.0725 -0.139,0.0628 -0.5697,-0.0395 z"
       id="path4411-0" /><path
       style="fill:#888888;fill-opacity:1;fill-rule:nonzero;stroke:none;stroke-width:0.0950984;stroke-dasharray:none;stroke-opacity:1"
       d="m 147.15397,249.09811 c -0.42302,-1.39299 -1.43585,-3.52888 -2.3023,-4.85519 l -0.19785,-0.30286 0.6466,-0.18966 c 0.53965,-0.15829 1.99482,-0.48642 2.15711,-0.48642 0.0257,0 0.0221,0.50204 -0.008,1.11565 -0.0622,1.2632 0.0749,2.78688 0.36518,4.05906 0.33894,1.48546 0.34498,1.37689 -0.0765,1.37587 l -0.36683,-7.9e-4 z"
       id="path4413-2" /><path
       style="fill:#888888;fill-opacity:1;fill-rule:nonzero;stroke:none;stroke-width:0.0950984;stroke-dasharray:none;stroke-opacity:1"
       d="m 147.97312,250.84263 c -0.25482,-0.0679 -0.36379,-0.15695 -0.40815,-0.33371 -0.0735,-0.29275 -0.0838,-0.2818 0.34007,-0.36097 0.31622,-0.0591 0.35172,-0.0426 0.4413,0.20517 0.0536,0.14817 0.12772,0.34416 0.16476,0.43555 0.0762,0.18815 -0.004,0.19619 -0.53798,0.054 z"
       id="path4415-7" /><path
       style="fill:#888888;fill-opacity:1;fill-rule:nonzero;stroke:none;stroke-width:0.0084056;stroke-dasharray:none;stroke-opacity:1"
       d="m 147.23433,250.71105 c -0.0208,-0.006 -0.11896,-0.0324 -0.2182,-0.0584 -0.35079,-0.0921 -0.69764,-0.1953 -1.10779,-0.32973 l -0.24758,-0.0812 0.34829,-0.006 c 0.37298,-0.006 0.63618,-0.0167 0.94303,-0.0371 0.10556,-0.007 0.19379,-0.0109 0.19608,-0.009 0.004,0.004 0.13635,0.51528 0.13647,0.52747 7e-5,0.008 -0.003,0.007 -0.0503,-0.007 z"
       id="path4421-6" /><path
       style="fill:#888888;fill-opacity:1;fill-rule:nonzero;stroke:none;stroke-width:0.0672446;stroke-dasharray:none;stroke-opacity:1"
       d="m 134.55925,255.06275 c 0.0203,-0.0692 0.0868,-0.30718 0.14776,-0.52874 0.53323,-1.93865 1.69435,-4.18104 2.94437,-5.68622 l 0.37319,-0.44938 0.6227,0.29007 c 1.53222,0.71377 3.34304,1.23112 4.95317,1.41512 0.75234,0.086 1.16767,0.17479 1.82817,0.39094 l 0.85465,0.27969 -1.05607,0.0752 c -2.59912,0.18509 -4.61529,0.71797 -6.83003,1.80519 -1.09622,0.53815 -2.30987,1.30216 -3.1587,1.98847 -0.68696,0.55544 -0.72619,0.57968 -0.67921,0.41965 z"
       id="path4423-13" /><path
       style="fill:#888888;fill-opacity:1;fill-rule:nonzero;stroke:none;stroke-width:0.134489;stroke-dasharray:none;stroke-opacity:1"
       d="m 136.36908,266.60426 c -1.64548,-2.72193 -2.45225,-6.27303 -2.12449,-9.35112 l 0.14298,-1.34278 0.64523,-0.5747 c 2.70235,-2.40693 6.57247,-3.90824 10.67944,-4.14281 1.44712,-0.0827 1.55545,-0.0716 1.62762,0.16604 0.48796,1.60673 0.46464,6.83256 -0.0359,8.04657 -0.0735,0.17836 -0.38459,0.35733 -0.90083,0.51829 -1.13028,0.35243 -3.45141,1.57296 -4.54829,2.39165 -1.38643,1.03481 -3.1217,2.86325 -3.9612,4.17386 -0.40619,0.63414 -0.77182,1.1569 -0.81252,1.1617 -0.0407,0.005 -0.36111,-0.46622 -0.71202,-1.0467 z"
       id="path4487-21" /><path
       style="fill:#888888;fill-opacity:1;fill-rule:nonzero;stroke:none;stroke-width:0.134489;stroke-dasharray:none;stroke-opacity:1"
       d="m 136.36908,266.60426 c -1.64548,-2.72193 -2.45225,-6.27303 -2.12449,-9.35112 l 0.14298,-1.34278 0.64523,-0.5747 c 2.70235,-2.40693 6.57247,-3.90824 10.67944,-4.14281 1.44712,-0.0827 1.55545,-0.0716 1.62762,0.16604 0.48796,1.60673 0.46464,6.83256 -0.0359,8.04657 -0.0735,0.17836 -0.38459,0.35733 -0.90083,0.51829 -1.13028,0.35243 -3.45141,1.57296 -4.54829,2.39165 -1.38643,1.03481 -3.1217,2.86325 -3.9612,4.17386 -0.40619,0.63414 -0.77182,1.1569 -0.81252,1.1617 -0.0407,0.005 -0.36111,-0.46622 -0.71202,-1.0467 z"
       id="path4489-59" /><path
       style="fill:#888888;fill-opacity:1;fill-rule:nonzero;stroke:none;stroke-width:0.0672446;stroke-dasharray:none;stroke-opacity:1"
       d="m 136.61225,267.10578 c -1.14465,-1.76117 -1.97465,-3.98638 -2.32272,-6.22714 -0.15853,-1.02064 -0.15956,-3.41667 -0.002,-4.3976 0.10767,-0.66981 0.10868,-0.67207 0.43025,-0.95954 0.4711,-0.42115 1.71432,-1.34503 2.35971,-1.75359 0.70135,-0.44398 2.38394,-1.26171 3.25697,-1.58287 1.81389,-0.66727 4.00414,-1.04136 6.09772,-1.04149 l 0.9184,-6e-5 0.0695,0.35248 c 0.46292,2.34711 0.47018,5.28227 0.0187,7.56749 l -0.11227,0.56824 -0.26855,0.0922 c -2.2207,0.76246 -3.68088,1.51588 -5.33755,2.75403 -0.88957,0.66484 -2.4605,2.20129 -3.10138,3.0333 -0.4787,0.62144 -1.17688,1.65039 -1.35531,1.99738 -0.0617,0.12001 -0.14276,0.2182 -0.18009,0.2182 -0.0373,0 -0.24952,-0.27946 -0.47152,-0.62103 z"
       id="path4543-91" /><path
       style="fill:#888888;fill-opacity:1;fill-rule:nonzero;stroke:none;stroke-width:0.0672446;stroke-dasharray:none;stroke-opacity:1"
       d="m 147.76305,259.27746 c 0,-0.0322 0.0631,-0.44802 0.14026,-0.92397 0.20078,-1.23882 0.25267,-3.92428 0.10114,-5.23427 -0.0601,-0.51964 -0.15135,-1.16549 -0.20274,-1.43522 l -0.0934,-0.4904 0.37706,0.0443 c 0.66695,0.0784 0.66779,0.079 0.92344,0.63228 0.30294,0.65568 0.93918,1.69503 1.50737,2.4624 0.50159,0.67743 1.57777,1.89606 1.82105,2.06209 l 0.15916,0.10862 -0.36926,0.15342 c -1.29055,0.53619 -2.76546,1.40517 -3.84371,2.2646 -0.28618,0.22811 -0.52033,0.38836 -0.52033,0.35613 z"
       id="path4545-49" /><path
       style="fill:#888888;fill-opacity:1;fill-rule:nonzero;stroke:none;stroke-width:0.0672446;stroke-dasharray:none;stroke-opacity:1"
       d="m 152.11774,255.65859 c -1.12738,-1.1591 -2.00585,-2.37615 -2.67333,-3.7037 l -0.27754,-0.55198 0.32196,0.0458 c 0.548,0.0779 2.05388,0.48083 2.74858,0.7354 1.65136,0.60512 3.84054,1.855 5.13449,2.93146 l 0.51153,0.42554 -0.78008,0.0504 c -1.37899,0.0891 -3.20687,0.41737 -3.99034,0.71665 -0.10395,0.0397 -0.21246,0.0722 -0.24114,0.0722 -0.0287,0 -0.36803,-0.32479 -0.75413,-0.72175 z"
       id="path4547-1" /><path
       style="fill:#888888;fill-opacity:1;fill-rule:nonzero;stroke:none;stroke-width:0.0672446;stroke-dasharray:none;stroke-opacity:1"
       d="m 159.98234,259.97767 c -2.37123,-0.50548 -4.33766,-1.4077 -6.26365,-2.87383 -0.29106,-0.22156 -0.50388,-0.42674 -0.47294,-0.45595 0.031,-0.0292 0.28286,-0.11512 0.55981,-0.1909 1.20135,-0.32874 2.76857,-0.54645 3.93455,-0.54658 l 0.54403,-5e-5 0.59826,0.62103 c 0.7816,0.81134 1.33892,1.50179 1.94758,2.41279 0.5108,0.76453 0.54337,0.8461 0.42564,1.06607 -0.0906,0.16922 -0.35884,0.16235 -1.27328,-0.0326 z"
       id="path4549-07" /><path
       style="fill:#888888;fill-opacity:1;fill-rule:nonzero;stroke:none;stroke-width:0.0672446;stroke-dasharray:none;stroke-opacity:1"
       d="m 161.3217,259.04911 c -0.36162,-0.58913 -1.28628,-1.7945 -1.86701,-2.43379 -0.37695,-0.41496 -0.51665,-0.61111 -0.44597,-0.62616 0.15614,-0.0332 1.54147,0.18005 2.14856,0.33081 0.66972,0.16631 1.96886,0.5913 2.00974,0.65745 0.0168,0.0271 -0.17771,0.3262 -0.43218,0.66461 -0.25447,0.3384 -0.62,0.87273 -0.8123,1.18741 -0.19229,0.31468 -0.35747,0.57215 -0.36705,0.57215 -0.01,0 -0.11479,-0.15862 -0.23379,-0.35248 z"
       id="path4551-5" /><path
       style="fill:#888888;fill-opacity:1;fill-rule:nonzero;stroke:none;stroke-width:0.0237746;stroke-dasharray:none;stroke-opacity:1"
       d="m 165.1142,257.52553 c -0.11715,-0.0663 -0.46754,-0.2456 -0.77864,-0.3985 l -0.56564,-0.27799 0.33204,-0.36568 c 0.18263,-0.20113 0.47023,-0.50275 0.63913,-0.67027 l 0.30708,-0.3046 0.0513,0.28086 c 0.0949,0.51992 0.143,0.85538 0.19345,1.34935 0.0276,0.2703 0.0466,0.49502 0.0423,0.49939 -0.004,0.004 -0.10379,-0.0463 -0.22095,-0.11256 z"
       id="path4553-8" /><path
       style="fill:#888888;fill-opacity:1;fill-rule:nonzero;stroke:none;stroke-width:0.0237746;stroke-dasharray:none;stroke-opacity:1"
       d="m 162.15955,260.29085 -0.15429,-0.0101 -0.13555,-0.2511 -0.13554,-0.2511 0.18796,-0.32311 c 0.26077,-0.44826 0.55819,-0.90907 0.87104,-1.34953 0.30437,-0.42854 0.75618,-1.00311 0.78878,-1.00311 0.034,0 0.77075,0.34585 0.9981,0.46853 0.11135,0.0601 0.33331,0.18282 0.49324,0.27275 l 0.29078,0.1635 v 0.66856 c 0,0.54711 -0.0353,1.43398 -0.0581,1.45925 -0.0101,0.0112 -0.5192,0.0765 -0.89136,0.11442 -0.35812,0.0364 -1.89842,0.0645 -2.25503,0.0411 z"
       id="path4555-70" /><path
       style="fill:#888888;fill-opacity:1;fill-rule:nonzero;stroke:none;stroke-width:0.0237746;stroke-dasharray:none;stroke-opacity:1"
       d="m 164.02279,263.8242 c -0.19591,-0.19139 -0.46333,-0.44118 -0.59428,-0.55508 l -0.23808,-0.20709 -0.0674,-0.20831 c -0.16627,-0.51376 -0.60099,-1.56392 -0.8625,-2.08355 l -0.0956,-0.1899 0.70349,0.008 c 0.75984,0.009 1.29266,-0.0171 1.95718,-0.0942 0.2326,-0.027 0.42872,-0.0432 0.43584,-0.0361 0.0143,0.0143 -0.019,0.2801 -0.0898,0.71583 -0.14788,0.91041 -0.36121,1.75769 -0.66361,2.63564 -0.0673,0.19538 -0.12387,0.35695 -0.1257,0.35904 -0.002,0.002 -0.16362,-0.1528 -0.35952,-0.34419 z"
       id="path4557-4" /><path
       style="fill:#888888;fill-opacity:1;fill-rule:nonzero;stroke:none;stroke-width:0.0237746;stroke-dasharray:none;stroke-opacity:1"
       d="m 162.38505,262.42496 c -0.3436,-0.25865 -1.00648,-0.70996 -1.31006,-0.89192 l -0.14693,-0.0881 0.0727,-0.17124 c 0.04,-0.0942 0.13531,-0.30337 0.21187,-0.46487 l 0.1392,-0.29363 0.23179,0.0171 c 0.12748,0.009 0.23324,0.0187 0.23502,0.0206 0.0199,0.0215 0.36689,0.74052 0.47131,0.97673 0.16504,0.37335 0.46663,1.131 0.45766,1.14975 -0.004,0.007 -0.16669,-0.10713 -0.36252,-0.25455 z"
       id="path4559-8" /><path
       style="fill:#888888;fill-opacity:1;fill-rule:nonzero;stroke:none;stroke-width:0.0237746;stroke-dasharray:none;stroke-opacity:1"
       d="m 160.50981,261.20401 c -0.20296,-0.12461 -1.00352,-0.52942 -1.37676,-0.69617 -1.54522,-0.69037 -3.16977,-1.14796 -4.83825,-1.36281 -0.76657,-0.0987 -1.25066,-0.12749 -2.16422,-0.12867 -1.31807,-0.002 -2.27725,0.0928 -3.49775,0.34464 -0.25265,0.0521 -0.46373,0.0904 -0.46904,0.0851 -0.0275,-0.0275 0.91449,-0.74479 1.41504,-1.07754 0.93705,-0.62294 2.10544,-1.21905 3.04059,-1.5513 l 0.15653,-0.0556 0.31822,0.26143 c 2.20522,1.81169 4.74291,2.95318 7.53994,3.39159 0.2058,0.0323 0.38184,0.0587 0.39121,0.0587 0.009,2e-5 -0.0315,0.10421 -0.0908,0.2315 -0.0593,0.12729 -0.14057,0.30888 -0.18054,0.40353 -0.04,0.0947 -0.0845,0.17127 -0.0991,0.17027 -0.0145,-0.001 -0.0798,-0.0346 -0.14507,-0.0747 z"
       id="path4561-04" /><path
       style="fill:#888888;fill-opacity:1;fill-rule:nonzero;stroke:none;stroke-width:0.0950984;stroke-dasharray:none;stroke-opacity:1"
       d="m 159.69799,270.35729 c -0.14771,-0.55212 -0.0839,-3.735 0.0965,-4.81402 0.18523,-1.10782 0.60629,-2.70411 0.88756,-3.36489 l 0.17355,-0.40769 0.67671,0.46618 c 1.46643,1.01021 1.45649,0.99532 1.8401,2.75611 l 0.1934,0.88774 -0.32771,0.58397 c -0.69928,1.24613 -1.80741,2.62713 -2.97342,3.7056 l -0.49438,0.45726 z"
       id="path4563-2" /><path
       style="fill:#888888;fill-opacity:1;fill-rule:nonzero;stroke:none;stroke-width:0.0950984;stroke-dasharray:none;stroke-opacity:1"
       d="m 163.64009,264.50878 c -0.0857,-0.37861 -0.14673,-0.69827 -0.13554,-0.71037 0.0112,-0.0121 0.17417,0.13745 0.36216,0.33232 l 0.3418,0.35432 -0.14449,0.35605 c -0.0795,0.19584 -0.17229,0.35606 -0.20627,0.35606 -0.034,0 -0.13193,-0.30977 -0.21766,-0.68838 z"
       id="path4565-96" /><path
       style="fill:#888888;fill-opacity:1;fill-rule:nonzero;stroke:none;stroke-width:0.0950984;stroke-dasharray:none;stroke-opacity:1"
       d="m 161.22197,275.61805 c -0.42362,-0.8412 -1.11138,-2.91408 -1.27318,-3.83729 l -0.11917,-0.67998 0.85947,-0.8179 c 0.98932,-0.94147 1.67975,-1.76355 2.42419,-2.88646 l 0.52482,-0.79164 0.0694,0.64806 c 0.0946,0.88314 -0.0119,3.32399 -0.18712,4.28795 -0.3744,2.06026 -1.24093,4.52558 -1.64464,4.67906 -0.12487,0.0475 -0.24508,0.0863 -0.26714,0.0863 -0.0221,0 -0.19604,-0.30966 -0.38663,-0.68813 z"
       id="path4567-1" /><path
       style="fill:#888888;fill-opacity:1;fill-rule:nonzero;stroke:none;stroke-width:0.0950984;stroke-dasharray:none;stroke-opacity:1"
       d="m 137.62699,268.49121 -0.30022,-0.37358 0.1715,-0.29711 c 1.43817,-2.49151 3.55728,-4.6349 6.07346,-6.14305 0.82504,-0.49452 2.81815,-1.41523 3.0671,-1.41685 0.0672,-5.3e-4 -0.14958,0.333 -0.48165,0.74097 -1.14618,1.40815 -1.74364,2.41024 -2.39503,4.01709 -0.3977,0.98101 -0.90096,2.74998 -0.90096,3.16686 0,0.11373 -0.0961,0.29675 -0.21363,0.40671 -0.20436,0.19125 -0.23837,0.1941 -0.78333,0.0655 -0.79873,-0.18847 -2.50049,-0.16767 -3.2978,0.0403 l -0.63923,0.16673 z"
       id="path4569-0" /><path
       style="fill:#888888;fill-opacity:1;fill-rule:nonzero;stroke:none;stroke-width:0.0950984;stroke-dasharray:none;stroke-opacity:1"
       d="m 139.35832,270.2861 c -0.37766,-0.33864 -0.77249,-0.72483 -0.87739,-0.85819 l -0.19074,-0.24248 0.23516,-0.0894 c 0.54593,-0.20756 1.76326,-0.30109 2.53811,-0.195 1.27749,0.17492 1.2693,0.12691 0.18663,1.09431 -0.52399,0.46821 -1.00951,0.8637 -1.07892,0.87888 -0.0694,0.0152 -0.43519,-0.24948 -0.81285,-0.58812 z"
       id="path4571-42" /><path
       style="fill:#888888;fill-opacity:1;fill-rule:nonzero;stroke:none;stroke-width:0.0950984;stroke-dasharray:none;stroke-opacity:1"
       d="m 137.73379,271.8687 c -0.13046,-0.24729 -0.44334,-0.76621 -0.69528,-1.15315 -0.4908,-0.75378 -0.49334,-0.71801 0.0726,-1.02355 0.27711,-0.14962 0.28124,-0.14806 0.56969,0.21467 0.15981,0.20095 0.55883,0.67428 0.88673,1.05182 l 0.59617,0.68646 -0.49995,0.33669 c -0.27498,0.18517 -0.54333,0.33669 -0.59634,0.33669 -0.053,0 -0.20312,-0.20234 -0.33359,-0.44963 z"
       id="path4573-2" /><path
       style="fill:#888888;fill-opacity:1;fill-rule:nonzero;stroke:none;stroke-width:0.0950984;stroke-dasharray:none;stroke-opacity:1"
       d="m 139.10032,270.9663 c -0.53928,-0.56781 -1.27142,-1.45555 -1.27142,-1.54164 0,-0.0397 0.41659,0.32606 0.92576,0.81282 0.50916,0.48676 0.92575,0.92621 0.92575,0.97654 0,0.22236 -0.2248,0.12635 -0.58009,-0.24772 z"
       id="path4575-2" /><path
       style="fill:#888888;fill-opacity:1;fill-rule:nonzero;stroke:none;stroke-width:0.0950984;stroke-dasharray:none;stroke-opacity:1"
       d="m 135.49647,273.43398 c 0.25398,-1.20844 0.37385,-1.69246 0.58353,-2.35622 l 0.24487,-0.77515 0.21524,0.31948 c 0.11839,0.17571 0.42126,0.67797 0.67306,1.11612 0.44252,0.77003 0.45174,0.80133 0.27567,0.93678 -0.16783,0.12911 -1.89773,0.97262 -1.99469,0.97262 -0.0234,0 -0.0224,-0.0961 0.002,-0.21363 z"
       id="path4577-0" /><path
       style="fill:#888888;fill-opacity:1;fill-rule:nonzero;stroke:none;stroke-width:0.0950984;stroke-dasharray:none;stroke-opacity:1"
       d="m 133.84105,274.18999 c 0,-0.22605 0.46014,-1.46368 0.71352,-1.91914 0.30581,-0.54969 1.18546,-1.6649 1.18546,-1.50289 0,0.0436 -0.0787,0.35685 -0.17493,0.69613 -0.0962,0.33927 -0.25071,1.0103 -0.34333,1.49116 l -0.1684,0.87431 -0.48747,0.16023 c -0.26811,0.0881 -0.54088,0.17993 -0.60616,0.20403 -0.0653,0.0241 -0.11869,0.0224 -0.11869,-0.004 z"
       id="path4579-5" /><path
       style="fill:#888888;fill-opacity:1;fill-rule:nonzero;stroke:none;stroke-width:0.134489;stroke-dasharray:none;stroke-opacity:1"
       d="m 162.37808,242.17822 c -0.16166,-0.10303 -0.58298,-1.91494 -0.58298,-2.50712 0,-0.32769 0.37489,-1.41829 0.48753,-1.41829 0.0306,0 0.55271,0.24982 1.16035,0.55515 1.07553,0.54043 2.85951,1.67746 3.63999,2.31996 l 0.38672,0.31835 -0.72242,0.20808 c -1.3227,0.38098 -4.07551,0.71105 -4.36919,0.52387 z"
       id="path4585-5" /><path
       style="font-variation-settings:normal;vector-effect:none;fill:#888888;fill-opacity:1;fill-rule:nonzero;stroke:none;stroke-width:0.134489;stroke-linecap:butt;stroke-linejoin:miter;stroke-miterlimit:4;stroke-dasharray:none;stroke-dashoffset:0;stroke-opacity:1;-inkscape-stroke:none;stop-color:#000000"
       d="m 168.8732,250.44386 -1.51521,-0.89076 1.58649,-0.24908 c 0.87257,-0.137 2.08247,-0.44942 2.68866,-0.69428 l 1.10218,-0.44518 0.30144,0.76737 c 0.28957,0.7372 0.28466,0.79213 -0.12505,1.39688 -0.41275,0.60924 -1.24975,1.00231 -2.13953,1.00476 -0.21107,5.3e-4 -1.06561,-0.39978 -1.89898,-0.88971 z"
       id="path9619-9" /><path
       style="font-variation-settings:normal;vector-effect:none;fill:#888888;fill-opacity:1;fill-rule:nonzero;stroke:none;stroke-width:0.134489;stroke-linecap:butt;stroke-linejoin:miter;stroke-miterlimit:4;stroke-dasharray:none;stroke-dashoffset:0;stroke-opacity:1;-inkscape-stroke:none;stop-color:#000000"
       d="m 171.66452,251.79989 -0.23498,-0.07 0.20883,-0.0881 c 0.11485,-0.0485 0.29285,-0.10922 0.39555,-0.135 l 0.18672,-0.0469 -0.12468,0.21108 c -0.0686,0.11609 -0.14084,0.20836 -0.16057,0.20503 -0.0197,-0.003 -0.14163,-0.0376 -0.27087,-0.0761 z"
       id="path9621-0" /><path
       style="font-variation-settings:normal;vector-effect:none;fill:#888888;fill-opacity:1;fill-rule:nonzero;stroke:none;stroke-width:0.134489;stroke-linecap:butt;stroke-linejoin:miter;stroke-miterlimit:4;stroke-dasharray:none;stroke-dashoffset:0;stroke-opacity:1;-inkscape-stroke:none;stop-color:#000000"
       d="m 173.07444,250.8381 c 0,-0.0496 0.4674,-0.70169 0.50295,-0.70169 0.0118,0 0.0669,0.13312 0.12234,0.29582 l 0.10079,0.29582 -0.24554,0.0435 c -0.13505,0.0239 -0.29842,0.059 -0.36305,0.078 -0.0646,0.019 -0.11749,0.0139 -0.11749,-0.0114 z"
       id="path9635-2" /><path
       style="font-variation-settings:normal;vector-effect:none;fill:#888888;fill-opacity:1;fill-rule:nonzero;stroke:none;stroke-width:0.134489;stroke-linecap:butt;stroke-linejoin:miter;stroke-miterlimit:4;stroke-dasharray:none;stroke-dashoffset:0;stroke-opacity:1;-inkscape-stroke:none;stop-color:#000000"
       d="m 174.64102,252.26248 c -0.0492,-0.0492 -0.0895,-0.20387 -0.0895,-0.34362 0,-0.29341 0.20386,-0.20719 0.40683,0.17206 0.10676,0.19946 0.0964,0.26107 -0.044,0.26107 -0.10107,0 -0.22405,-0.0403 -0.27328,-0.0895 z"
       id="path10116-8" /></g></svg>
